<svg width="46" height="46" viewBox="0 0 46 46" fill="none" xmlns="http://www.w3.org/2000/svg">
<path d="M13.4414 31.9732C11.6385 30.9815 10.4524 29.1294 10.3299 27.1146L9.82734 18.8465C9.70487 16.8317 10.6646 14.9603 12.3451 13.9372L19.2413 9.73868C20.9218 8.71558 23.0677 8.69625 24.8706 9.68795L32.2694 13.7576C34.0723 14.7493 35.2584 16.6014 35.3809 18.6162L35.8835 26.8844C36.0059 28.8991 35.0461 30.7706 33.3657 31.7937L26.4695 35.9922C24.789 37.0152 22.6431 37.0346 20.8402 36.0429L13.4414 31.9732Z" fill="#F0572F"/>
<path fill-rule="evenodd" clip-rule="evenodd" d="M9.94971 18.8454L10.4523 27.1135C10.5721 29.0845 11.7324 30.8963 13.4961 31.8665L20.8949 35.9362C22.6587 36.9063 24.7579 36.8874 26.4018 35.8865L33.298 31.688C34.942 30.6872 35.8809 28.8565 35.7611 26.8855L35.2585 18.6173C35.1387 16.6463 33.9784 14.8345 32.2146 13.8643L24.8159 9.79467C23.0521 8.82453 20.9529 8.84345 19.309 9.8443L12.4128 14.0428C10.7688 15.0436 9.82991 16.8744 9.94971 18.8454ZM10.3299 27.1146C10.4524 29.1294 11.6385 30.9815 13.4414 31.9732L20.8402 36.0429C22.6431 37.0346 24.789 37.0152 26.4695 35.9922L33.3657 31.7937C35.0461 30.7706 36.0059 28.8991 35.8835 26.8844L35.3809 18.6162C35.2584 16.6014 34.0723 14.7493 32.2694 13.7576L24.8706 9.68795C23.0677 8.69625 20.9218 8.71558 19.2413 9.73868L12.3451 13.9372C10.6646 14.9603 9.70487 16.8317 9.82734 18.8465L10.3299 27.1146Z" fill="#3A001E"/>
<path d="M17.3527 25.9152C17.2724 25.9971 17.1915 26.03 17.1098 26.0138C17.0294 26.0015 16.9625 25.9672 16.9092 25.9111C16.851 25.8521 16.8142 25.7836 16.7987 25.7056C16.7833 25.6276 16.8157 25.5476 16.896 25.4658C16.9737 25.3887 17.0828 25.322 17.2234 25.2658C17.3651 25.2135 17.5384 25.1387 17.7434 25.0416L17.7598 25.0559C17.6704 25.2548 17.5996 25.4284 17.5475 25.5769C17.4916 25.7263 17.4267 25.8391 17.3527 25.9152ZM17.7485 25.0587C17.5307 25.0731 17.3421 25.0903 17.1825 25.1103C17.023 25.1303 16.8901 25.1251 16.784 25.0947C16.6692 25.0624 16.596 25.0072 16.5644 24.9292C16.5302 24.8559 16.5221 24.7822 16.5401 24.708C16.5569 24.6299 16.5964 24.5666 16.6585 24.5181C16.7168 24.4705 16.8034 24.4629 16.9181 24.4952C17.028 24.5246 17.1463 24.5888 17.2731 24.6878C17.3961 24.7876 17.5548 24.9051 17.749 25.0402L17.7485 25.0587ZM17.7395 25.0487C17.6111 24.8642 17.495 24.7072 17.3914 24.5778C17.2851 24.4532 17.2153 24.3357 17.182 24.2253C17.1476 24.1112 17.1553 24.0231 17.2053 23.9613C17.2553 23.8994 17.3159 23.8594 17.3872 23.8413C17.4622 23.8223 17.5367 23.828 17.6105 23.8584C17.6843 23.8888 17.7384 23.9611 17.7729 24.0753C17.8062 24.1857 17.8154 24.3165 17.8004 24.4678C17.7818 24.6201 17.7665 24.8104 17.7546 25.0387L17.7395 25.0487ZM17.7564 25.0445L17.7417 25.0359C17.8311 24.837 17.9037 24.6628 17.9596 24.5134C18.0117 24.365 18.0748 24.2527 18.1487 24.1765C18.229 24.0947 18.3094 24.0599 18.3899 24.0723C18.4715 24.0884 18.539 24.1245 18.5922 24.1807C18.6542 24.2387 18.6923 24.3048 18.7066 24.379C18.7183 24.458 18.6846 24.5403 18.6055 24.626C18.5278 24.7031 18.4181 24.7678 18.2763 24.8202C18.1358 24.8764 17.9625 24.9511 17.7564 25.0445ZM18.5833 25.5966C18.4735 25.5671 18.357 25.5024 18.234 25.4026C18.1083 25.3074 17.9478 25.1905 17.7525 25.0516L17.7529 25.033C17.9707 25.0187 18.1594 25.0015 18.319 24.9815C18.4797 24.9653 18.6125 24.9704 18.7174 24.9971C18.8322 25.0294 18.9048 25.0826 18.9353 25.1569C18.9669 25.2349 18.9756 25.3105 18.9614 25.3838C18.9445 25.4618 18.907 25.5246 18.8486 25.5722C18.7865 25.6208 18.6981 25.6289 18.5833 25.5966ZM18.1142 26.2504C18.043 26.2685 17.9704 26.2624 17.8966 26.2319C17.8191 26.2025 17.7631 26.1306 17.7286 26.0165C17.6964 25.9099 17.6891 25.7786 17.7067 25.6225C17.7253 25.4703 17.7381 25.2785 17.7451 25.0473L17.762 25.043C17.8941 25.2266 18.012 25.3831 18.1157 25.5125C18.2194 25.6419 18.2873 25.7599 18.3194 25.8664C18.3539 25.9806 18.348 26.0681 18.3018 26.1291C18.2518 26.1909 18.1893 26.2314 18.1142 26.2504Z" fill="#3A001E"/>
<path d="M17.0893 25.0429C17.009 25.1248 16.928 25.1576 16.8464 25.1415C16.766 25.1291 16.6991 25.0949 16.6458 25.0388C16.5876 24.9798 16.5508 24.9113 16.5353 24.8333C16.5199 24.7553 16.5523 24.6753 16.6326 24.5935C16.7103 24.5164 16.8194 24.4497 16.96 24.3935C17.1017 24.3412 17.275 24.2664 17.48 24.1693L17.4964 24.1836C17.407 24.3825 17.3362 24.5561 17.2841 24.7046C17.2282 24.854 17.1633 24.9668 17.0893 25.0429ZM17.4851 24.1864C17.2673 24.2008 17.0786 24.2179 16.9191 24.238C16.7595 24.258 16.6267 24.2528 16.5206 24.2224C16.4058 24.1901 16.3326 24.1349 16.301 24.0569C16.2668 23.9836 16.2587 23.9099 16.2767 23.8357C16.2935 23.7576 16.333 23.6943 16.3951 23.6458C16.4534 23.5982 16.5399 23.5906 16.6547 23.6229C16.7646 23.6523 16.8829 23.7165 17.0097 23.8155C17.1327 23.9153 17.2914 24.0328 17.4856 24.1679L17.4851 24.1864ZM17.4761 24.1764C17.3477 23.9919 17.2316 23.8349 17.128 23.7055C17.0217 23.5809 16.9519 23.4634 16.9186 23.353C16.8841 23.2388 16.8919 23.1508 16.9419 23.089C16.9919 23.0271 17.0525 22.9871 17.1238 22.969C17.1988 22.95 17.2732 22.9556 17.3471 22.9861C17.4209 23.0165 17.475 23.0888 17.5094 23.203C17.5428 23.3133 17.5519 23.4442 17.537 23.5955C17.5183 23.7477 17.5031 23.9381 17.4912 24.1664L17.4761 24.1764ZM17.4929 24.1721L17.4782 24.1636C17.5677 23.9647 17.6403 23.7905 17.6962 23.6411C17.7483 23.4927 17.8114 23.3803 17.8853 23.3042C17.9656 23.2223 18.046 23.1876 18.1265 23.1999C18.2081 23.2161 18.2755 23.2522 18.3288 23.3084C18.3908 23.3664 18.4289 23.4325 18.4432 23.5067C18.4549 23.5857 18.4212 23.668 18.3421 23.7537C18.2643 23.8308 18.1546 23.8955 18.0129 23.9479C17.8724 24.0041 17.699 24.0788 17.4929 24.1721ZM18.3199 24.7243C18.2101 24.6948 18.0936 24.6301 17.9706 24.5303C17.8449 24.4351 17.6844 24.3181 17.489 24.1793L17.4895 24.1607C17.7073 24.1464 17.896 24.1292 18.0555 24.1092C18.2162 24.0929 18.3491 24.0981 18.454 24.1247C18.5688 24.1571 18.6414 24.2103 18.6719 24.2845C18.7035 24.3626 18.7122 24.4382 18.698 24.5115C18.6811 24.5895 18.6435 24.6523 18.5852 24.6999C18.5231 24.7485 18.4347 24.7566 18.3199 24.7243ZM17.8508 25.3781C17.7796 25.3962 17.707 25.3901 17.6332 25.3596C17.5557 25.3302 17.4996 25.2583 17.4652 25.1442C17.433 25.0376 17.4257 24.9063 17.4432 24.7502C17.4619 24.598 17.4747 24.4062 17.4817 24.175L17.4986 24.1707C17.6307 24.3543 17.7486 24.5108 17.8523 24.6402C17.956 24.7696 18.0239 24.8875 18.056 24.9941C18.0905 25.1083 18.0846 25.1958 18.0384 25.2567C17.9884 25.3186 17.9259 25.3591 17.8508 25.3781Z" fill="#3A001E"/>
<path d="M20.7822 18.4878C20.7019 18.5696 20.6209 18.6025 20.5393 18.5863C20.4589 18.574 20.392 18.5397 20.3387 18.4836C20.2805 18.4246 20.2437 18.3561 20.2282 18.2781C20.2128 18.2001 20.2452 18.1201 20.3255 18.0383C20.4032 17.9612 20.5123 17.8945 20.6529 17.8384C20.7946 17.786 20.9679 17.7112 21.1729 17.6141L21.1893 17.6284C21.0999 17.8273 21.0291 18.001 20.977 18.1494C20.9211 18.2988 20.8562 18.4116 20.7822 18.4878ZM21.178 17.6312C20.9602 17.6456 20.7715 17.6628 20.612 17.6828C20.4524 17.7028 20.3196 17.6976 20.2135 17.6672C20.0987 17.6349 20.0255 17.5797 19.9939 17.5017C19.9597 17.4284 19.9516 17.3547 19.9696 17.2805C19.9864 17.2024 20.0259 17.1392 20.088 17.0906C20.1463 17.043 20.2328 17.0354 20.3476 17.0677C20.4575 17.0972 20.5758 17.1614 20.7026 17.2603C20.8256 17.3602 20.9843 17.4776 21.1785 17.6127L21.178 17.6312ZM21.169 17.6212C21.0406 17.4367 20.9245 17.2797 20.8209 17.1503C20.7146 17.0257 20.6448 16.9082 20.6115 16.7978C20.577 16.6837 20.5848 16.5957 20.6348 16.5338C20.6848 16.4719 20.7454 16.4319 20.8167 16.4138C20.8917 16.3948 20.9661 16.4005 21.04 16.4309C21.1138 16.4613 21.1679 16.5336 21.2023 16.6478C21.2357 16.7582 21.2448 16.889 21.2299 17.0403C21.2112 17.1926 21.196 17.3829 21.1841 17.6113L21.169 17.6212ZM21.1858 17.617L21.1711 17.6084C21.2606 17.4095 21.3332 17.2353 21.3891 17.0859C21.4412 16.9375 21.5043 16.8252 21.5782 16.749C21.6585 16.6672 21.7389 16.6324 21.8194 16.6448C21.901 16.6609 21.9684 16.6971 22.0217 16.7532C22.0837 16.8112 22.1218 16.8773 22.1361 16.9515C22.1478 17.0305 22.1141 17.1128 22.035 17.1985C21.9572 17.2756 21.8475 17.3403 21.7058 17.3927C21.5653 17.4489 21.3919 17.5236 21.1858 17.617ZM22.0128 18.1691C21.903 18.1396 21.7865 18.075 21.6635 17.9751C21.5378 17.88 21.3773 17.763 21.1819 17.6241L21.1824 17.6055C21.4002 17.5912 21.5889 17.574 21.7484 17.554C21.9091 17.5378 22.042 17.543 22.1469 17.5696C22.2617 17.6019 22.3343 17.6552 22.3648 17.7294C22.3964 17.8074 22.4051 17.883 22.3909 17.9563C22.374 18.0343 22.3364 18.0971 22.2781 18.1447C22.216 18.1933 22.1276 18.2014 22.0128 18.1691ZM21.5437 18.8229C21.4725 18.841 21.3999 18.8349 21.3261 18.8045C21.2486 18.775 21.1925 18.7032 21.1581 18.589C21.1259 18.4824 21.1186 18.3511 21.1361 18.195C21.1548 18.0428 21.1676 17.851 21.1746 17.6198L21.1915 17.6155C21.3236 17.7991 21.4415 17.9556 21.5452 18.085C21.6489 18.2144 21.7168 18.3324 21.7489 18.4389C21.7834 18.5531 21.7775 18.6407 21.7313 18.7016C21.6813 18.7634 21.6188 18.8039 21.5437 18.8229Z" fill="#3A001E"/>
<path d="M20.5188 17.6152C20.4385 17.6971 20.3575 17.7299 20.2759 17.7138C20.1955 17.7014 20.1286 17.6672 20.0753 17.611C20.0171 17.5521 19.9803 17.4836 19.9648 17.4055C19.9494 17.3275 19.9818 17.2476 20.0621 17.1657C20.1398 17.0886 20.2489 17.022 20.3895 16.9658C20.5312 16.9134 20.7045 16.8387 20.9095 16.7416L20.9259 16.7558C20.8365 16.9547 20.7657 17.1284 20.7136 17.2769C20.6577 17.4263 20.5928 17.539 20.5188 17.6152ZM20.9146 16.7587C20.6968 16.773 20.5081 16.7902 20.3486 16.8102C20.189 16.8303 20.0562 16.8251 19.9501 16.7947C19.8353 16.7623 19.7621 16.7072 19.7305 16.6291C19.6963 16.5559 19.6882 16.4821 19.7062 16.4079C19.723 16.3299 19.7625 16.2666 19.8246 16.218C19.8829 16.1705 19.9694 16.1628 20.0842 16.1951C20.1941 16.2246 20.3124 16.2888 20.4392 16.3877C20.5622 16.4876 20.7209 16.6051 20.9151 16.7401L20.9146 16.7587ZM20.9056 16.7487C20.7772 16.5641 20.6611 16.4072 20.5575 16.2778C20.4512 16.1532 20.3814 16.0357 20.3481 15.9253C20.3136 15.8111 20.3214 15.7231 20.3714 15.6612C20.4214 15.5994 20.482 15.5594 20.5533 15.5413C20.6283 15.5222 20.7028 15.5279 20.7766 15.5583C20.8504 15.5888 20.9045 15.6611 20.9389 15.7752C20.9723 15.8856 20.9814 16.0164 20.9665 16.1677C20.9478 16.32 20.9326 16.5103 20.9207 16.7387L20.9056 16.7487ZM20.9224 16.7444L20.9077 16.7358C20.9972 16.5369 21.0698 16.3628 21.1257 16.2134C21.1778 16.0649 21.2409 15.9526 21.3148 15.8765C21.3951 15.7946 21.4755 15.7599 21.556 15.7722C21.6376 15.7884 21.705 15.8245 21.7583 15.8806C21.8203 15.9386 21.8584 16.0048 21.8727 16.079C21.8844 16.158 21.8507 16.2403 21.7716 16.3259C21.6939 16.403 21.5841 16.4678 21.4424 16.5202C21.3019 16.5763 21.1285 16.6511 20.9224 16.7444ZM21.7494 17.2965C21.6396 17.2671 21.5231 17.2024 21.4001 17.1025C21.2744 17.0074 21.1139 16.8904 20.9185 16.7515L20.919 16.733C21.1368 16.7186 21.3255 16.7015 21.485 16.6814C21.6457 16.6652 21.7786 16.6704 21.8835 16.697C21.9983 16.7293 22.0709 16.7826 22.1014 16.8568C22.133 16.9348 22.1417 17.0105 22.1275 17.0837C22.1106 17.1618 22.073 17.2246 22.0147 17.2722C21.9526 17.3207 21.8642 17.3288 21.7494 17.2965ZM21.2803 17.9504C21.2091 17.9685 21.1365 17.9623 21.0627 17.9319C20.9852 17.9024 20.9291 17.8306 20.8947 17.7164C20.8625 17.6099 20.8552 17.4785 20.8727 17.3225C20.8914 17.1702 20.9042 16.9785 20.9112 16.7473L20.9281 16.743C21.0602 16.9266 21.1781 17.0831 21.2818 17.2125C21.3855 17.3418 21.4534 17.4598 21.4855 17.5664C21.52 17.6805 21.5141 17.7681 21.4679 17.829C21.4179 17.8909 21.3554 17.9313 21.2803 17.9504Z" fill="#3A001E"/>
<path d="M28.3456 21.5952C28.2653 21.677 28.1844 21.7099 28.1028 21.6937C28.0223 21.6814 27.9554 21.6472 27.9021 21.591C27.8439 21.532 27.8071 21.4635 27.7917 21.3855C27.7762 21.3075 27.8086 21.2276 27.8889 21.1457C27.9666 21.0686 28.0757 21.002 28.2163 20.9458C28.358 20.8934 28.5314 20.8187 28.7363 20.7215L28.7527 20.7358C28.6633 20.9347 28.5925 21.1084 28.5404 21.2568C28.4845 21.4062 28.4196 21.519 28.3456 21.5952ZM28.7415 20.7387C28.5237 20.753 28.335 20.7702 28.1754 20.7902C28.0159 20.8102 27.883 20.8051 27.7769 20.7746C27.6622 20.7423 27.589 20.6871 27.5573 20.6091C27.5231 20.5359 27.515 20.4621 27.533 20.3879C27.5498 20.3099 27.5893 20.2466 27.6514 20.198C27.7097 20.1504 27.7963 20.1428 27.911 20.1751C28.0209 20.2046 28.1392 20.2688 28.266 20.3677C28.3891 20.4676 28.5477 20.585 28.7419 20.7201L28.7415 20.7387ZM28.7324 20.7287C28.604 20.5441 28.488 20.3871 28.3843 20.2578C28.278 20.1331 28.2082 20.0156 28.1749 19.9053C28.1405 19.7911 28.1482 19.7031 28.1982 19.6412C28.2482 19.5793 28.3089 19.5394 28.3801 19.5213C28.4552 19.5022 28.5296 19.5079 28.6034 19.5383C28.6772 19.5687 28.7313 19.641 28.7658 19.7552C28.7991 19.8656 28.8083 19.9964 28.7934 20.1477C28.7747 20.3 28.7594 20.4903 28.7476 20.7187L28.7324 20.7287ZM28.7493 20.7244L28.7346 20.7158C28.824 20.5169 28.8966 20.3428 28.9525 20.1934C29.0047 20.0449 29.0677 19.9326 29.1416 19.8564C29.222 19.7746 29.3023 19.7398 29.3828 19.7522C29.4644 19.7683 29.5319 19.8045 29.5852 19.8606C29.6471 19.9186 29.6852 19.9847 29.6995 20.059C29.7113 20.1379 29.6775 20.2203 29.5984 20.3059C29.5207 20.383 29.411 20.4478 29.2693 20.5001C29.1287 20.5563 28.9554 20.6311 28.7493 20.7244ZM29.5763 21.2765C29.4664 21.247 29.3499 21.1824 29.2269 21.0825C29.1013 20.9874 28.9408 20.8704 28.7454 20.7315L28.7458 20.713C28.9636 20.6986 29.1523 20.6814 29.3119 20.6614C29.4726 20.6452 29.6054 20.6504 29.7104 20.677C29.8251 20.7093 29.8978 20.7626 29.9282 20.8368C29.9598 20.9148 29.9685 20.9904 29.9543 21.0637C29.9375 21.1418 29.8999 21.2046 29.8415 21.2522C29.7794 21.3007 29.691 21.3088 29.5763 21.2765ZM29.1072 21.9304C29.0359 21.9485 28.9633 21.9423 28.8895 21.9119C28.812 21.8824 28.756 21.8106 28.7215 21.6964C28.6894 21.5898 28.682 21.4585 28.6996 21.3025C28.7182 21.1502 28.7311 20.9585 28.738 20.7272L28.7549 20.723C28.8871 20.9066 29.005 21.0631 29.1086 21.1924C29.2123 21.3218 29.2802 21.4398 29.3124 21.5464C29.3468 21.6605 29.3409 21.7481 29.2947 21.809C29.2447 21.8709 29.1822 21.9113 29.1072 21.9304Z" fill="#3A001E"/>
<path d="M28.0824 20.7226C28.0021 20.8045 27.9212 20.8373 27.8395 20.8212C27.7591 20.8088 27.6922 20.7746 27.6389 20.7185C27.5807 20.6595 27.5439 20.591 27.5284 20.513C27.513 20.4349 27.5454 20.355 27.6257 20.2731C27.7034 20.196 27.8125 20.1294 27.9531 20.0732C28.0948 20.0208 28.2681 19.9461 28.4731 19.849L28.4895 19.8632C28.4001 20.0621 28.3293 20.2358 28.2772 20.3843C28.2213 20.5337 28.1564 20.6465 28.0824 20.7226ZM28.4783 19.8661C28.2604 19.8804 28.0718 19.8976 27.9122 19.9177C27.7527 19.9377 27.6198 19.9325 27.5137 19.9021C27.3989 19.8698 27.3258 19.8146 27.2941 19.7366C27.2599 19.6633 27.2518 19.5896 27.2698 19.5153C27.2866 19.4373 27.3261 19.374 27.3882 19.3255C27.4465 19.2779 27.5331 19.2702 27.6478 19.3026C27.7577 19.332 27.876 19.3962 28.0028 19.4951C28.1258 19.595 28.2845 19.7125 28.4787 19.8475L28.4783 19.8661ZM28.4692 19.8561C28.3408 19.6715 28.2247 19.5146 28.1211 19.3852C28.0148 19.2606 27.945 19.1431 27.9117 19.0327C27.8773 18.9185 27.885 18.8305 27.935 18.7686C27.985 18.7068 28.0456 18.6668 28.1169 18.6487C28.1919 18.6296 28.2664 18.6353 28.3402 18.6658C28.414 18.6962 28.4681 18.7685 28.5026 18.8827C28.5359 18.993 28.5451 19.1239 28.5301 19.2752C28.5115 19.4274 28.4962 19.6177 28.4843 19.8461L28.4692 19.8561ZM28.4861 19.8518L28.4714 19.8433C28.5608 19.6444 28.6334 19.4702 28.6893 19.3208C28.7414 19.1723 28.8045 19.06 28.8784 18.9839C28.9587 18.902 29.0391 18.8673 29.1196 18.8796C29.2012 18.8958 29.2687 18.9319 29.3219 18.988C29.3839 19.0461 29.422 19.1122 29.4363 19.1864C29.4481 19.2654 29.4143 19.3477 29.3352 19.4334C29.2575 19.5105 29.1478 19.5752 29.006 19.6276C28.8655 19.6838 28.6922 19.7585 28.4861 19.8518ZM29.313 20.404C29.2032 20.3745 29.0867 20.3098 28.9637 20.2099C28.8381 20.1148 28.6775 19.9978 28.4822 19.859L28.4826 19.8404C28.7004 19.8261 28.8891 19.8089 29.0487 19.7889C29.2094 19.7726 29.3422 19.7778 29.4472 19.8044C29.5619 19.8368 29.6345 19.89 29.665 19.9642C29.6966 20.0422 29.7053 20.1179 29.6911 20.1912C29.6742 20.2692 29.6367 20.332 29.5783 20.3796C29.5162 20.4282 29.4278 20.4363 29.313 20.404ZM28.8439 21.0578C28.7727 21.0759 28.7001 21.0697 28.6263 21.0393C28.5488 21.0098 28.4928 20.938 28.4583 20.8238C28.4261 20.7173 28.4188 20.586 28.4364 20.4299C28.455 20.2777 28.4678 20.0859 28.4748 19.8547L28.4917 19.8504C28.6238 20.034 28.7417 20.1905 28.8454 20.3199C28.9491 20.4493 29.017 20.5672 29.0492 20.6738C29.0836 20.788 29.0777 20.8755 29.0315 20.9364C28.9815 20.9983 28.919 21.0388 28.8439 21.0578Z" fill="#3A001E"/>
<path d="M23.7617 28.4346C23.6763 28.3492 23.64 28.2661 23.6527 28.1854C23.6616 28.1056 23.6931 28.0407 23.747 27.9908C23.8036 27.9361 23.8706 27.9034 23.9481 27.8927C24.0256 27.882 24.107 27.9194 24.1924 28.0048C24.2729 28.0873 24.3442 28.2007 24.4064 28.3449C24.4649 28.49 24.5471 28.6681 24.6531 28.8793L24.6395 28.8949C24.4365 28.7931 24.2596 28.7116 24.1087 28.6503C23.9568 28.5852 23.8411 28.5133 23.7617 28.4346ZM24.6361 28.8834C24.6125 28.6644 24.5873 28.4745 24.5605 28.3135C24.5336 28.1525 24.5332 28.0198 24.5591 27.9154C24.5866 27.8025 24.6388 27.7326 24.7155 27.7057C24.7874 27.6759 24.8609 27.6723 24.936 27.6949C25.0149 27.7165 25.0799 27.7599 25.1312 27.825C25.1813 27.8864 25.1926 27.9735 25.1651 28.0864C25.1403 28.1946 25.0811 28.3092 24.9874 28.4301C24.8926 28.5471 24.7817 28.6988 24.6547 28.885L24.6361 28.8834ZM24.6458 28.8749C24.8251 28.7577 24.9773 28.6511 25.1025 28.5552C25.2228 28.4565 25.3374 28.3938 25.4465 28.3672C25.5594 28.3397 25.6479 28.3529 25.7119 28.4067C25.776 28.4605 25.8186 28.5237 25.8398 28.5962C25.862 28.6725 25.8595 28.7466 25.8322 28.8187C25.8048 28.8907 25.7347 28.9405 25.6219 28.968C25.5128 28.9946 25.3822 28.9958 25.23 28.9716C25.0768 28.9435 24.8856 28.9166 24.6564 28.8907L24.6458 28.8749ZM24.6508 28.8921L24.6587 28.8779C24.8617 28.9796 25.0391 29.063 25.1911 29.1282C25.342 29.1894 25.4571 29.2594 25.5365 29.3382C25.6219 29.4236 25.6601 29.5062 25.6511 29.586C25.6384 29.6668 25.6051 29.7321 25.5512 29.782C25.4957 29.8405 25.4311 29.8746 25.3574 29.8844C25.2788 29.8913 25.195 29.8525 25.1058 29.768C25.0253 29.6854 24.9559 29.5716 24.8974 29.4265C24.8352 29.2823 24.753 29.1042 24.6508 28.8921ZM24.133 29.6863C24.1579 29.5781 24.2177 29.4655 24.3125 29.3484C24.4024 29.2285 24.5127 29.0749 24.6435 28.8878L24.6621 28.8894C24.6857 29.1083 24.7109 29.2983 24.7377 29.4593C24.7608 29.6212 24.7612 29.7539 24.739 29.8574C24.7116 29.9703 24.6613 30.0397 24.5883 30.0657C24.5115 30.0926 24.4361 30.0967 24.3622 30.0779C24.2833 30.0563 24.2188 30.0148 24.1687 29.9535C24.1174 29.8883 24.1056 29.7993 24.133 29.6863ZM23.4584 29.1766C23.4373 29.1041 23.4404 29.0319 23.4677 28.9598C23.4939 28.884 23.5634 28.8323 23.6763 28.8048C23.7816 28.7791 23.9128 28.7798 24.0698 28.8069C24.2231 28.835 24.4156 28.8595 24.6474 28.8807L24.6524 28.8978C24.4742 29.0189 24.3225 29.1274 24.1974 29.2233C24.0722 29.3191 23.957 29.3799 23.8516 29.4056C23.7388 29.4331 23.6509 29.4218 23.5879 29.3718C23.5238 29.3179 23.4807 29.2529 23.4584 29.1766Z" fill="#3A001E"/>
<path d="M24.6242 28.2244C24.5388 28.139 24.5025 28.0559 24.5152 27.9752C24.5241 27.8954 24.5556 27.8305 24.6095 27.7806C24.6661 27.7259 24.7331 27.6932 24.8106 27.6825C24.888 27.6718 24.9695 27.7092 25.0548 27.7946C25.1353 27.8771 25.2067 27.9905 25.2689 28.1347C25.3274 28.2798 25.4096 28.4579 25.5156 28.6691L25.502 28.6847C25.299 28.5829 25.1221 28.5014 24.9712 28.4401C24.8193 28.375 24.7036 28.3031 24.6242 28.2244ZM25.4986 28.6732C25.475 28.4542 25.4498 28.2643 25.423 28.1033C25.3961 27.9423 25.3957 27.8096 25.4216 27.7052C25.4491 27.5923 25.5013 27.5224 25.578 27.4955C25.6499 27.4657 25.7234 27.4621 25.7985 27.4847C25.8774 27.5063 25.9424 27.5497 25.9937 27.6148C26.0438 27.6762 26.0551 27.7633 26.0276 27.8762C26.0028 27.9844 25.9435 28.099 25.8499 28.2199C25.7551 28.3369 25.6442 28.4886 25.5172 28.6748L25.4986 28.6732ZM25.5082 28.6647C25.6876 28.5475 25.8398 28.4409 25.965 28.345C26.0853 28.2463 26.1999 28.1836 26.309 28.157C26.4219 28.1295 26.5104 28.1427 26.5744 28.1965C26.6385 28.2503 26.6811 28.3135 26.7023 28.386C26.7245 28.4623 26.722 28.5364 26.6947 28.6085C26.6673 28.6805 26.5972 28.7303 26.4844 28.7578C26.3753 28.7844 26.2447 28.7856 26.0925 28.7614C25.9393 28.7333 25.7481 28.7064 25.5189 28.6805L25.5082 28.6647ZM25.5133 28.6819L25.5212 28.6677C25.7242 28.7694 25.9016 28.8528 26.0536 28.9179C26.2045 28.9792 26.3196 29.0492 26.399 29.128C26.4844 29.2134 26.5226 29.296 26.5136 29.3758C26.5009 29.4565 26.4676 29.5219 26.4137 29.5718C26.3582 29.6303 26.2936 29.6644 26.2199 29.6742C26.1413 29.6811 26.0575 29.6423 25.9683 29.5578C25.8878 29.4752 25.8183 29.3614 25.7599 29.2163C25.6976 29.0721 25.6154 28.894 25.5133 28.6819ZM24.9955 29.4761C25.0204 29.3679 25.0802 29.2553 25.175 29.1382C25.2649 29.0182 25.3752 28.8647 25.5059 28.6776L25.5245 28.6792C25.5481 28.8981 25.5734 29.0881 25.6002 29.2491C25.6233 29.411 25.6237 29.5437 25.6015 29.6472C25.574 29.7601 25.5238 29.8295 25.4508 29.8555C25.374 29.8824 25.2986 29.8865 25.2247 29.8677C25.1458 29.8461 25.0813 29.8046 25.0312 29.7433C24.9799 29.6781 24.968 29.5891 24.9955 29.4761ZM24.3209 28.9664C24.2998 28.8939 24.3028 28.8216 24.3302 28.7496C24.3564 28.6738 24.4259 28.6221 24.5388 28.5946C24.6441 28.5689 24.7753 28.5696 24.9323 28.5967C25.0856 28.6248 25.2781 28.6493 25.5099 28.6705L25.5149 28.6876C25.3367 28.8087 25.185 28.9172 25.0599 29.0131C24.9347 29.1089 24.8195 29.1697 24.7141 29.1954C24.6013 29.2229 24.5134 29.2116 24.4504 29.1616C24.3863 29.1077 24.3432 29.0427 24.3209 28.9664Z" fill="#3A001E"/>
<path d="M23.7476 24.067L23.8006 24.1524C23.4379 24.3869 23.1517 24.6786 22.9421 25.0277C22.7333 25.3734 22.5648 25.7917 22.4366 26.2825C22.3084 26.7733 22.249 27.2271 22.2586 27.6438C22.269 28.0573 22.3718 28.4674 22.567 28.8742L22.4806 28.9165C22.2238 28.5119 22.0484 28.0775 21.9543 27.6135C21.8644 27.1472 21.8856 26.6605 22.0182 26.1533C22.1507 25.6461 22.3675 25.2215 22.6685 24.8795C22.9738 24.5353 23.3335 24.2645 23.7476 24.067Z" fill="#3A001E"/>
<path d="M21.1177 23.2549C21.3744 23.6596 21.5478 24.0951 21.6377 24.5613C21.7318 25.0254 21.7126 25.511 21.5801 26.0182C21.4476 26.5254 21.2287 26.9511 20.9234 27.2953C20.6224 27.6373 20.2648 27.907 19.8507 28.1044L19.7976 28.0191C20.1604 27.7846 20.4461 27.4944 20.6549 27.1487C20.8645 26.7997 21.0334 26.3798 21.1617 25.8889C21.2899 25.3981 21.3488 24.946 21.3384 24.5325C21.3288 24.1158 21.2264 23.7041 21.0312 23.2972L21.1177 23.2549Z" fill="#3A001E"/>
<path d="M22.5412 21.3927L22.4882 21.3073C22.8509 21.0728 23.1371 20.7811 23.3467 20.4321C23.5555 20.0863 23.724 19.668 23.8522 19.1772C23.9804 18.6864 24.0398 18.2326 24.0302 17.8159C24.0198 17.4025 23.917 16.9923 23.7218 16.5855L23.8082 16.5432C24.065 16.9479 24.2404 17.3822 24.3345 17.8462C24.4244 18.3125 24.4031 18.7993 24.2706 19.3065C24.1381 19.8137 23.9213 20.2382 23.6202 20.5802C23.315 20.9244 22.9553 21.1953 22.5412 21.3927Z" fill="#3A001E"/>
<path d="M25.1711 22.205C24.9143 21.8004 24.741 21.3649 24.651 20.8986C24.5569 20.4346 24.5761 19.949 24.7086 19.4418C24.8411 18.9346 25.06 18.5089 25.3653 18.1647C25.6664 17.8227 26.024 17.553 26.438 17.3555L26.4911 17.4409C26.1284 17.6754 25.8426 17.9655 25.6339 18.3113C25.4242 18.6603 25.2553 19.0802 25.1271 19.571C24.9988 20.0619 24.9399 20.514 24.9504 20.9274C24.9599 21.3441 25.0623 21.7559 25.2575 22.1628L25.1711 22.205Z" fill="#3A001E"/>
<path d="M18.1926 18.6525L18.2862 18.6275C18.4373 19.0508 18.6598 19.4177 18.9536 19.7283C19.2444 20.037 19.6138 20.3292 20.0618 20.6049C20.5098 20.8805 20.9363 21.0781 21.3414 21.1976C21.7434 21.3152 22.1616 21.3425 22.5958 21.2794L22.6187 21.376C22.1737 21.4994 21.717 21.5349 21.2485 21.4825C20.7787 21.4255 20.3124 21.2545 19.8495 20.9697C19.3866 20.6848 19.0211 20.344 18.7532 19.9471C18.484 19.5455 18.2971 19.114 18.1926 18.6525Z" fill="#3A001E"/>
<path d="M16.8578 20.9453C17.3028 20.822 17.7602 20.7888 18.2299 20.8459C18.6984 20.8982 19.1641 21.0668 19.627 21.3516C20.0899 21.6365 20.456 21.9797 20.7252 22.3813C20.9932 22.7782 21.1794 23.2073 21.2839 23.6688L21.1903 23.6938C21.0392 23.2705 20.8182 22.9045 20.5274 22.5958C20.2336 22.2852 19.8627 21.9921 19.4147 21.7164C18.9667 21.4408 18.5417 21.2441 18.1396 21.1265C17.7346 21.007 17.3149 20.9788 16.8807 21.0419L16.8578 20.9453Z" fill="#3A001E"/>
<path d="M28.1198 26.8187L28.0262 26.8437C27.8751 26.4204 27.6526 26.0535 27.3588 25.7429C27.068 25.4342 26.6985 25.142 26.2506 24.8663C25.8026 24.5907 25.3761 24.3931 24.971 24.2736C24.569 24.156 24.1508 24.1287 23.7166 24.1918L23.6937 24.0952C24.1387 23.9718 24.5954 23.9363 25.0639 23.9887C25.5336 24.0457 26 24.2167 26.4629 24.5015C26.9258 24.7864 27.2912 25.1272 27.5592 25.5241C27.8284 25.9257 28.0153 26.3572 28.1198 26.8187Z" fill="#3A001E"/>
<path d="M29.4545 24.5261C29.0096 24.6495 28.5522 24.6826 28.0824 24.6256C27.6139 24.5732 27.1483 24.4047 26.6853 24.1198C26.2224 23.835 25.8563 23.4917 25.5871 23.0901C25.3192 22.6933 25.133 22.2641 25.0284 21.8026L25.1221 21.7776C25.2732 22.2009 25.4942 22.5669 25.785 22.8757C26.0788 23.1862 26.4497 23.4793 26.8977 23.755C27.3457 24.0307 27.7707 24.2273 28.1727 24.3449C28.5778 24.4644 28.9974 24.4926 29.4317 24.4295L29.4545 24.5261Z" fill="#3A001E"/>
<path d="M12.2365 28.6803L12.9564 27.7508L13.1264 27.8858L12.5118 28.6793L14.7077 30.4238L14.6024 30.5598L12.2365 28.6803Z" fill="#3A001E"/>
<path d="M11.6727 24.7554L12.8393 24.509L12.8933 24.7164L11.8973 24.9267L12.5942 27.6055L12.4234 27.6416L11.6727 24.7554Z" fill="#3A001E"/>
<path d="M11.8456 20.9563L13.0498 20.9455L13.0627 21.1573L12.0347 21.1666L12.201 23.903L12.0248 23.9045L11.8456 20.9563Z" fill="#3A001E"/>
<path d="M11.6131 17.1314L12.8172 17.1205L12.8301 17.3324L11.8022 17.3416L11.9685 20.078L11.7923 20.0796L11.6131 17.1314Z" fill="#3A001E"/>
<path d="M14.1697 14.2817L15.1648 15.0144L15.0451 15.1827L14.1956 14.5573L12.6485 16.7312L12.5028 16.624L14.1697 14.2817Z" fill="#3A001E"/>
<path d="M17.7 12.834L18.3656 13.8733L18.1889 13.9809L17.6207 13.0936L15.3384 14.4831L15.241 14.3311L17.7 12.834Z" fill="#3A001E"/>
<path d="M20.8789 10.8987L21.5445 11.938L21.3678 12.0456L20.7996 11.1583L18.5173 12.5478L18.4199 12.3958L20.8789 10.8987Z" fill="#3A001E"/>
<path d="M24.6145 10.7483L24.75 11.9525L24.5395 11.9653L24.4238 10.9374L21.7046 11.1035L21.6848 10.9272L24.6145 10.7483Z" fill="#3A001E"/>
<path d="M27.868 13.1609L27.3294 14.211L27.1398 14.1068L27.5996 13.2103L25.151 11.8634L25.2298 11.7097L27.868 13.1609Z" fill="#3A001E"/>
<path d="M31.2687 15.0315L30.7302 16.0816L30.5406 15.9774L31.0004 15.0809L28.5517 13.734L28.6305 13.5803L31.2687 15.0315Z" fill="#3A001E"/>
<path d="M34.08 17.633L33.2606 18.4748L33.1051 18.323L33.8046 17.6044L31.7962 15.6442L31.9161 15.521L34.08 17.633Z" fill="#3A001E"/>
<path d="M34.2137 21.5776L33.0207 21.6952L32.9892 21.4844L34.0075 21.384L33.6001 18.6605L33.7747 18.6433L34.2137 21.5776Z" fill="#3A001E"/>
<path d="M34.2354 25.3791L33.0312 25.39L33.0184 25.1781L34.0463 25.1689L33.88 22.4325L34.0562 22.4309L34.2354 25.3791Z" fill="#3A001E"/>
<path d="M34.1975 29.1575L32.9917 29.0555L32.9987 28.8444L34.028 28.9315L34.1179 26.2048L34.2943 26.2197L34.1975 29.1575Z" fill="#3A001E"/>
<path d="M31.3047 31.6842L30.3878 30.8538L30.5255 30.7001L31.3082 31.409L33.0866 29.4241L33.2208 29.5457L31.3047 31.6842Z" fill="#3A001E"/>
<path d="M27.8359 33.1846L27.1703 32.1453L27.347 32.0377L27.9152 32.9249L30.1975 31.5354L30.2949 31.6875L27.8359 33.1846Z" fill="#3A001E"/>
<path d="M24.6678 35.1135L24.0022 34.0742L24.1789 33.9666L24.7471 34.8539L27.0294 33.4644L27.1268 33.6165L24.6678 35.1135Z" fill="#3A001E"/>
<path d="M20.8607 34.69L20.8528 33.4848L21.0646 33.4944L21.0714 34.5232L23.8079 34.6469L23.809 34.8232L20.8607 34.69Z" fill="#3A001E"/>
<path d="M17.6449 32.2578L18.1835 31.2077L18.373 31.3119L17.9133 32.2084L20.3619 33.5553L20.2831 33.709L17.6449 32.2578Z" fill="#3A001E"/>
<path d="M14.247 30.3887L14.7856 29.3385L14.9752 29.4428L14.5154 30.3393L16.9641 31.6862L16.8853 31.8398L14.247 30.3887Z" fill="#3A001E"/>
<path d="M28.2998 13.684L27.5134 14.2931L27.6276 14.437L28.299 13.917L29.775 15.7749L29.8901 15.6858L28.2998 13.684Z" fill="#3A001E"/>
<path d="M24.9787 13.2071L24.7702 14.1941L24.9457 14.2398L25.1236 13.3972L27.3902 13.9867L27.4207 13.8423L24.9787 13.2071Z" fill="#3A001E"/>
<path d="M21.7642 13.353L21.755 14.3719L21.9343 14.3828L21.9421 13.513L24.2573 13.6537L24.2587 13.5046L21.7642 13.353Z" fill="#3A001E"/>
<path d="M18.5283 13.1565L18.5191 14.1753L18.6984 14.1862L18.7062 13.3165L21.0215 13.4572L21.0228 13.3081L18.5283 13.1565Z" fill="#3A001E"/>
<path d="M16.1166 15.3195L16.7366 16.1615L16.879 16.0601L16.3498 15.3414L18.1892 14.0324L18.0985 13.9092L16.1166 15.3195Z" fill="#3A001E"/>
<path d="M14.8921 18.3066L15.7715 18.8698L15.8625 18.7203L15.1118 18.2396L16.2875 16.3085L16.1588 16.2261L14.8921 18.3066Z" fill="#3A001E"/>
<path d="M13.2545 20.9961L14.1339 21.5593L14.2249 21.4098L13.4742 20.929L14.6499 18.9979L14.5212 18.9155L13.2545 20.9961Z" fill="#3A001E"/>
<path d="M13.1275 24.157L14.1463 24.2717L14.1572 24.0936L13.2874 23.9957L13.428 21.695L13.2789 21.6782L13.1275 24.157Z" fill="#3A001E"/>
<path d="M15.1684 26.9097L16.057 26.454L15.9687 26.2936L15.2102 26.6826L14.0706 24.6108L13.9406 24.6775L15.1684 26.9097Z" fill="#3A001E"/>
<path d="M16.7512 29.7869L17.6398 29.3312L17.5516 29.1708L16.793 29.5598L15.6535 27.488L15.5234 27.5547L16.7512 29.7869Z" fill="#3A001E"/>
<path d="M18.9526 32.1656L19.6648 31.4723L19.5364 31.3407L18.9284 31.9326L17.2699 30.2333L17.1656 30.3347L18.9526 32.1656Z" fill="#3A001E"/>
<path d="M22.29 32.2786L22.3895 31.2693L22.2111 31.2426L22.1262 32.1042L19.8219 31.7595L19.8073 31.9072L22.29 32.2786Z" fill="#3A001E"/>
<path d="M25.5065 32.2971L25.5157 31.2783L25.3364 31.2674L25.3286 32.1371L23.0133 31.9964L23.012 32.1455L25.5065 32.2971Z" fill="#3A001E"/>
<path d="M28.7034 32.265L28.617 31.2448L28.4384 31.2507L28.5121 32.1216L26.2051 32.1976L26.2177 32.3469L28.7034 32.265Z" fill="#3A001E"/>
<path d="M30.8412 29.8175L30.1386 29.0417L30.0085 29.1582L30.6084 29.8205L28.9289 31.3252L29.0318 31.4387L30.8412 29.8175Z" fill="#3A001E"/>
<path d="M32.1109 26.8826L31.2316 26.3194L31.1405 26.4689L31.8912 26.9496L30.7156 28.8807L30.8442 28.9631L32.1109 26.8826Z" fill="#3A001E"/>
<path d="M33.7427 24.2021L32.8634 23.639L32.7724 23.7885L33.523 24.2692L32.3474 26.2003L32.4761 26.2827L33.7427 24.2021Z" fill="#3A001E"/>
<path d="M33.3845 20.9808L32.3648 20.9741L32.3729 21.1533L33.2434 21.1591L33.348 23.4744L33.4973 23.4753L33.3845 20.9808Z" fill="#3A001E"/>
<path d="M31.3265 18.26L30.4379 18.7157L30.5262 18.8761L31.2847 18.4871L32.4243 20.5589L32.5543 20.4922L31.3265 18.26Z" fill="#3A001E"/>
<path d="M29.7451 15.385L28.8566 15.8407L28.9448 16.0011L29.7033 15.6121L30.8429 17.6839L30.973 17.6172L29.7451 15.385Z" fill="#3A001E"/>
</svg>
